<svg id="Layer_1" data-name="Layer 1" xmlns="http://www.w3.org/2000/svg" viewBox="0 0 366.32 223.88"><defs><style>.cls-1{fill:#5e489d;}.cls-2{fill:#5e499d;}</style></defs><title>SonjaLogo</title><path class="cls-1" d="M173.75,270.38a4.13,4.13,0,0,0,.37-3c-.68-1.93-3-1.78-4.57-4a7.19,7.19,0,0,1-1-5.05c.37-3.18,2.58-5.13,3.88-6.28s4.82-4.26,9.88-3.63c4.74.58,7.44,4.15,8.31,5.28a15,15,0,0,1,2.07,14.5c-2.35,5.59-7.78,7.86-9.73,8.68-14.62,6.14-38.64-2-45.31-19.09a27.7,27.7,0,0,1-.89-17.4c3.53-12.08,15.27-18.36,20.12-21,37.72-20.63,66.64-36.45,78.72-60.37,1.21-2.4,12-24.48,3.25-47-4.67-12.12-13-19.24-16.86-22.49-28.39-23.74-81-26.31-109.85.08-3.64,3.33-19.21,17.56-18.79,37.58,0,.86.69,21.16,12.75,27.29,0,0,2.41,1.22,20.68,2.77,0,0-7.75,9.58-4.57,18.93,2.42,7.11,9.11,10,13,11.73,1.88.82,19,7.91,33-3.3a30.75,30.75,0,0,0,11-29.12c-.47-2.55-.72-10.16-6.82-13.9-8.19-5-11.2-3.13-24.85-11-4.12-2.37-7.71-9.79-5.43-14.67,1.46-3.13,5.34-5,8.8-5,2.79,0,6.79,1.22,7.78,3.94.89,2.44-1.2,4.6-.09,5.81.92,1,3.57.79,5-.43,3.8-3.18,2.52-15.66-5-20.86-5.95-4.11-13.25-1.93-15-1.4-11.34,3.38-14.93,15.21-15.11,15.85a24,24,0,0,0,3.47,20.26c2.72,3.77,4.72,3.84,19.2,12.56,11.11,6.69,12.68,8.3,13.6,10.72,2.09,5.51.23,13.65-6,18-8.37,5.84-17.91,0-19.52-1.05-.72-.47-6.61-4.42-6-8.24.32-1.88,1.82-3.77,5.2-5.34,9.81-4.52,6-12.56,6-12.56-21.05-3.59-35.19-14.31-35.95-25.65-.47-7,4.26-12.62,7.47-16.45,15.55-18.54,41.3-19.2,45.27-19.24,19.1-.21,49.5,7.69,57.05,29.43,6.66,19.21-7.84,39.65-13.83,48.1-30.15,42.5-76,35.87-86.41,70.43-.87,2.88-5.44,19.09,2.66,34.63,6.6,12.66,18.08,18.1,22.49,20.12,2.83,1.29,25.66,11.29,45.15-1,3.51-2.2,14.46-9.08,16.18-21.76,1.45-10.76-3.76-25.52-15.17-28.18-13.09-3.05-28.33,11.31-26.31,21.39C164.22,265.62,170.52,269,173.75,270.38Z" transform="translate(-93.32 -70.7)"/><path class="cls-2" d="M306.57,166.9a7.7,7.7,0,0,1-.6,3.15,6.47,6.47,0,0,1-3.87,3.6,8,8,0,0,1-2.67.45l-.24-.54a4.68,4.68,0,0,0,1.05-1.44,7.61,7.61,0,0,0,.63-3.54q0-3.84-2.1-5.76t-6.6-1.92q-1,0-2.67.18a11,11,0,0,0-3.42,1,8.26,8.26,0,0,0-3,2.31,6.57,6.57,0,0,0-1.26,4.29A7.76,7.76,0,0,0,283,172.9a11.39,11.39,0,0,0,2.91,3.06A21.84,21.84,0,0,0,290,178.3q2.31,1,4.74,2t4.74,2.19a18.81,18.81,0,0,1,4.11,2.79,12.72,12.72,0,0,1,2.91,3.87,12,12,0,0,1,1.11,5.37,12.8,12.8,0,0,1-1.26,5.85,11.51,11.51,0,0,1-3.51,4.14,15.6,15.6,0,0,1-5.4,2.46,27.8,27.8,0,0,1-6.93.81q-.66,0-1.92-.06a21.55,21.55,0,0,1-2.52-.27,8.87,8.87,0,0,1-2.19-.63,1.32,1.32,0,0,1-.93-1.2,7.43,7.43,0,0,1-3.12-.63,7.62,7.62,0,0,1-2.4-1.71,7.36,7.36,0,0,1-1.56-2.55,9.24,9.24,0,0,1-.54-3.21,7.54,7.54,0,0,1,.66-3.33,6.67,6.67,0,0,1,4-3.51,11.35,11.35,0,0,1,2.46-.54l.24.3a3.81,3.81,0,0,0-.57,1.14,10.61,10.61,0,0,0-.33,1.32,9.82,9.82,0,0,0-.15,1.29q0,.63,0,1.05a10.84,10.84,0,0,0,.87,4.65,8.27,8.27,0,0,0,2.19,2.91,8,8,0,0,0,2.91,1.53,11.13,11.13,0,0,0,3,.45,20.73,20.73,0,0,0,2.79-.27,12,12,0,0,0,3.63-1.17,9.3,9.3,0,0,0,3.15-2.61,7.21,7.21,0,0,0,1.35-4.59,7.9,7.9,0,0,0-1.83-5.43,16.22,16.22,0,0,0-4.59-3.54,52.07,52.07,0,0,0-6-2.7,33.52,33.52,0,0,1-6-3,16.06,16.06,0,0,1-4.59-4.32,13.31,13.31,0,0,1-.12-13.26,11.83,11.83,0,0,1,4.23-3.87,17.42,17.42,0,0,1,5.37-1.83,31.48,31.48,0,0,1,5.19-.48q5.94,0,5.94,2.4a12,12,0,0,1,2.61.3,6.8,6.8,0,0,1,2.43,1.05,5.7,5.7,0,0,1,1.77,2A7,7,0,0,1,306.57,166.9Z" transform="translate(-93.32 -70.7)"/><path class="cls-2" d="M327.45,207.82a14.44,14.44,0,0,1-5.55-1,13.41,13.41,0,0,1-7.47-7.59,16.19,16.19,0,0,1-1.08-6.06,15.9,15.9,0,0,1,1.08-6.06,12.56,12.56,0,0,1,7.47-7.23,16.94,16.94,0,0,1,11.07,0,12.51,12.51,0,0,1,7.5,7.23,15.9,15.9,0,0,1,1.08,6.06,16.37,16.37,0,0,1-1.08,6.12,13.57,13.57,0,0,1-3,4.62,13.1,13.1,0,0,1-4.5,2.94A14.88,14.88,0,0,1,327.45,207.82Zm.06-2.76a7.08,7.08,0,0,0,3.78-1,7.86,7.86,0,0,0,2.58-2.61,12.23,12.23,0,0,0,1.5-3.81,21,21,0,0,0,.48-4.56,19.88,19.88,0,0,0-.48-4.44,10.83,10.83,0,0,0-1.5-3.63,7.31,7.31,0,0,0-6.42-3.33,7.83,7.83,0,0,0-3.81.87A7.32,7.32,0,0,0,321,185a10.83,10.83,0,0,0-1.5,3.63,20.16,20.16,0,0,0-.48,4.5,21,21,0,0,0,.48,4.56,11.8,11.8,0,0,0,1.53,3.81,8,8,0,0,0,2.64,2.61A7.24,7.24,0,0,0,327.51,205.06Z" transform="translate(-93.32 -70.7)"/><path class="cls-2" d="M369.57,195.76a48.24,48.24,0,0,0-.39-6.72,15.12,15.12,0,0,0-1.17-4.32,5.1,5.1,0,0,0-2-2.31,5.44,5.44,0,0,0-2.76-.69,7.51,7.51,0,0,0-3,.6,6.61,6.61,0,0,0-2.49,1.89,9.47,9.47,0,0,0-1.71,3.36,17.12,17.12,0,0,0-.63,5V201a4.42,4.42,0,0,0,.39,2,3.89,3.89,0,0,0,1,1.26,3.48,3.48,0,0,0,1.32.69,5.44,5.44,0,0,0,1.47.21V207a15.56,15.56,0,0,1-1.59-.09l-1.83-.21-1.83-.21a14.09,14.09,0,0,0-3.18,0l-1.83.21-1.83.21a15.56,15.56,0,0,1-1.59.09v-1.8a4.83,4.83,0,0,0,2.88-.9,3.72,3.72,0,0,0,1.26-3.24V191q0-2.22-.09-3.69a5.83,5.83,0,0,0-.51-2.28,2.37,2.37,0,0,0-1.2-1.14,5.69,5.69,0,0,0-2.16-.33v-1.5a16.52,16.52,0,0,0,2.61-.18,9.5,9.5,0,0,0,2-.54,9.81,9.81,0,0,0,1.65-.84l1.59-1h1.5v4.2a9.65,9.65,0,0,1,3.15-3.45,8.35,8.35,0,0,1,4.77-1.35q5.94,0,8.76,3.6T375,194.44v6.3a4.42,4.42,0,0,0,.39,2,3.89,3.89,0,0,0,1,1.26,3.48,3.48,0,0,0,1.32.69,5.44,5.44,0,0,0,1.47.21V207a9.39,9.39,0,0,1-1.38-.09l-1.23-.18-1.44-.18a18,18,0,0,0-1.95-.09q-.78,0-1.77.09A15,15,0,0,0,369,207l-.54-1a3.13,3.13,0,0,0,.66-1.53,17.26,17.26,0,0,0,.33-2.55q.09-1.44.12-3.06T369.57,195.76Z" transform="translate(-93.32 -70.7)"/><path class="cls-2" d="M390.75,209.08q0,6.18-2.79,9.54T379.17,222a9.31,9.31,0,0,1-4.59-.87,2.61,2.61,0,0,1-1.47-2.31,2.72,2.72,0,0,1-2-1.5,5.18,5.18,0,0,1-.66-2.4,3.77,3.77,0,0,1,1.26-2.82,4.67,4.67,0,0,1,3.36-1.2,10.26,10.26,0,0,1,1.74.18v.24a2,2,0,0,0-1.14,1.08,4.57,4.57,0,0,0-.36,1.92,5.48,5.48,0,0,0,1.08,3.33,5.08,5.08,0,0,0,7.83-.84,15.55,15.55,0,0,0,1.17-6.81V190.42q0-2.22-.09-3.69a5.83,5.83,0,0,0-.51-2.28,2.37,2.37,0,0,0-1.2-1.14,5.69,5.69,0,0,0-2.16-.33v-1.5a16.52,16.52,0,0,0,2.61-.18,9.5,9.5,0,0,0,2-.54,9.81,9.81,0,0,0,1.65-.84l1.59-1h1.5ZM384,170a4.07,4.07,0,0,1,1.26-3,4.15,4.15,0,0,1,3-1.23,4,4,0,0,1,3,1.23,4.35,4.35,0,0,1,0,6.06,4,4,0,0,1-3,1.23,4.15,4.15,0,0,1-3-1.23A4.07,4.07,0,0,1,384,170Z" transform="translate(-93.32 -70.7)"/><path class="cls-2" d="M420.87,201a4.42,4.42,0,0,0,.39,2,3.89,3.89,0,0,0,1,1.26,3.48,3.48,0,0,0,1.32.69,5.44,5.44,0,0,0,1.47.21V207a10.18,10.18,0,0,1-2.37-.24,10.18,10.18,0,0,0-2.37-.24q-1.38,0-2.4.06a12.66,12.66,0,0,0-2.4.42V203.8a15.61,15.61,0,0,1-3.3,2.79,8.5,8.5,0,0,1-4.68,1.23,13,13,0,0,1-4.05-.6,8.77,8.77,0,0,1-3.12-1.74,8,8,0,0,1-2-2.73,8.56,8.56,0,0,1-.72-3.57,7.74,7.74,0,0,1,.75-3.45,7.17,7.17,0,0,1,2.13-2.58,10.26,10.26,0,0,1,3.24-1.62,14.09,14.09,0,0,1,4.14-.57,16.6,16.6,0,0,1,4.41.51,19.76,19.76,0,0,1,3.21,1.17v-2.22a23.36,23.36,0,0,0-.21-3.12,9.45,9.45,0,0,0-.81-2.82,4.8,4.8,0,0,0-4.68-2.82,9.05,9.05,0,0,0-1.71.18,5.48,5.48,0,0,0-1.71.63,4.2,4.2,0,0,0-1.32,1.2,3.15,3.15,0,0,0-.54,1.89,6.23,6.23,0,0,0,.18,1.38,4.14,4.14,0,0,1-2,.48,3,3,0,0,1-2.46-.93,3.22,3.22,0,0,1-.78-2.13,3.15,3.15,0,0,1,.81-2.13,2.9,2.9,0,0,1,2.31-.93,1.42,1.42,0,0,1,.6-1.14,4.36,4.36,0,0,1,1.59-.75A13.41,13.41,0,0,1,407,179q1.2-.12,2.46-.12a17,17,0,0,1,4.83.63,8.07,8.07,0,0,1,3.6,2.16,10,10,0,0,1,2.25,4.08,22.45,22.45,0,0,1,.78,6.45Zm-11.7,4a5.74,5.74,0,0,0,3.66-1.23,11.4,11.4,0,0,0,2.64-3v-6a17.7,17.7,0,0,0-3.06-1.11,12.94,12.94,0,0,0-3.36-.45,6.17,6.17,0,0,0-4.11,1.44,5,5,0,0,0-1.71,4.08,6.34,6.34,0,0,0,1.62,4.5A5.62,5.62,0,0,0,409.17,205.06Z" transform="translate(-93.32 -70.7)"/><path class="cls-2" d="M276.57,238.9a7.7,7.7,0,0,1-.6,3.15,6.47,6.47,0,0,1-3.87,3.6,8,8,0,0,1-2.67.45l-.24-.54a4.68,4.68,0,0,0,1.05-1.44,7.61,7.61,0,0,0,.63-3.54q0-3.84-2.1-5.76t-6.6-1.92q-1,0-2.67.18a11,11,0,0,0-3.42,1,8.26,8.26,0,0,0-3,2.31,6.57,6.57,0,0,0-1.26,4.29A7.76,7.76,0,0,0,253,244.9a11.39,11.39,0,0,0,2.91,3.06A21.84,21.84,0,0,0,260,250.3q2.31,1,4.74,2t4.74,2.19a18.81,18.81,0,0,1,4.11,2.79,12.72,12.72,0,0,1,2.91,3.87,12,12,0,0,1,1.11,5.37,12.8,12.8,0,0,1-1.26,5.85,11.51,11.51,0,0,1-3.51,4.14,15.6,15.6,0,0,1-5.4,2.46,27.8,27.8,0,0,1-6.93.81q-.66,0-1.92-.06a21.55,21.55,0,0,1-2.52-.27,8.87,8.87,0,0,1-2.19-.63,1.32,1.32,0,0,1-.93-1.2,7.43,7.43,0,0,1-3.12-.63,7.62,7.62,0,0,1-2.4-1.71,7.36,7.36,0,0,1-1.56-2.55,9.24,9.24,0,0,1-.54-3.21,7.54,7.54,0,0,1,.66-3.33,6.67,6.67,0,0,1,4-3.51,11.35,11.35,0,0,1,2.46-.54l.24.3a3.81,3.81,0,0,0-.57,1.14,10.61,10.61,0,0,0-.33,1.32,9.82,9.82,0,0,0-.15,1.29q0,.63,0,1a10.84,10.84,0,0,0,.87,4.65,8.27,8.27,0,0,0,2.19,2.91,8,8,0,0,0,2.91,1.53,11.13,11.13,0,0,0,3,.45,20.73,20.73,0,0,0,2.79-.27,12,12,0,0,0,3.63-1.17,9.3,9.3,0,0,0,3.15-2.61,7.21,7.21,0,0,0,1.35-4.59,7.9,7.9,0,0,0-1.83-5.43,16.22,16.22,0,0,0-4.59-3.54,52.07,52.07,0,0,0-6-2.7,33.52,33.52,0,0,1-6-3,16.06,16.06,0,0,1-4.59-4.32,13.31,13.31,0,0,1-.12-13.26,11.83,11.83,0,0,1,4.23-3.87,17.42,17.42,0,0,1,5.37-1.83,31.48,31.48,0,0,1,5.19-.48q5.94,0,5.94,2.4a12,12,0,0,1,2.61.3,6.8,6.8,0,0,1,2.43,1.05,5.7,5.7,0,0,1,1.77,2A7,7,0,0,1,276.57,238.9Z" transform="translate(-93.32 -70.7)"/><path class="cls-2" d="M297.33,250.9l1.41,0a7.93,7.93,0,0,1,1.56.21,3.62,3.62,0,0,1,1.29.57,1.29,1.29,0,0,1,.54,1.11,5.13,5.13,0,0,1,3.27.93,3.64,3.64,0,0,1,1.17,3,4.72,4.72,0,0,1-.42,2.07,4.08,4.08,0,0,1-1.08,1.41,4.54,4.54,0,0,1-1.5.81,5.46,5.46,0,0,1-1.68.27l-.87,0a3.41,3.41,0,0,1-.87-.15v-.24a2.54,2.54,0,0,0,1.32-1.05,3.82,3.82,0,0,0,.48-2.07,4,4,0,0,0-1.11-2.94,4.91,4.91,0,0,0-3.63-1.14,6.59,6.59,0,0,0-6,3.15,16.16,16.16,0,0,0-1.95,8.55q0,5.7,2.07,8.67a6.89,6.89,0,0,0,6,3,6,6,0,0,0,4.41-1.53,7.89,7.89,0,0,0,2-4.41H304a5.84,5.84,0,0,1,1.56.93,2.43,2.43,0,0,1,.78,2,4.8,4.8,0,0,1-2.61,4.11,12.7,12.7,0,0,1-6.87,1.65,15.91,15.91,0,0,1-5.34-.87,11.62,11.62,0,0,1-4.26-2.61,11.92,11.92,0,0,1-2.82-4.44,17.79,17.79,0,0,1-1-6.3,17.55,17.55,0,0,1,1.08-6.42,13.27,13.27,0,0,1,2.94-4.62,11.62,11.62,0,0,1,4.41-2.76A16.38,16.38,0,0,1,297.33,250.9Z" transform="translate(-93.32 -70.7)"/><path class="cls-2" d="M319.65,273a4.42,4.42,0,0,0,.39,2,3.89,3.89,0,0,0,1,1.26,3.48,3.48,0,0,0,1.32.69,5.44,5.44,0,0,0,1.47.21V279a15.56,15.56,0,0,1-1.59-.09l-1.83-.21-1.83-.21a14.09,14.09,0,0,0-3.18,0l-1.83.21-1.83.21a15.56,15.56,0,0,1-1.59.09v-1.8a4.83,4.83,0,0,0,2.88-.9,3.72,3.72,0,0,0,1.26-3.24V242q0-2.22-.09-3.69a5.83,5.83,0,0,0-.51-2.28,2.37,2.37,0,0,0-1.2-1.14,5.69,5.69,0,0,0-2.16-.33V233a16.52,16.52,0,0,0,2.61-.18,9.5,9.5,0,0,0,2-.54,9.81,9.81,0,0,0,1.65-.84l1.59-1h1.5V255.7a11.13,11.13,0,0,1,1.44-1.83,9,9,0,0,1,2-1.53,10.54,10.54,0,0,1,2.64-1.05,13.9,13.9,0,0,1,3.48-.39,12.2,12.2,0,0,1,4.5.78,7.84,7.84,0,0,1,3.33,2.49,11.72,11.72,0,0,1,2,4.44,27.43,27.43,0,0,1,.69,6.63v7.14a56.29,56.29,0,0,0,.27,6.18,17.07,17.07,0,0,0,.72,3.6,3.3,3.3,0,0,0,1.08,1.68,2.3,2.3,0,0,0,1.29.42,7.33,7.33,0,0,0,1.2-.09,2.94,2.94,0,0,0,1.2-.57l.3.24a6,6,0,0,1-2,2.61,4.7,4.7,0,0,1-2.88,1,4.29,4.29,0,0,1-2.76-1,3.13,3.13,0,0,1-1.2-2.58,6.88,6.88,0,0,1-1.29-.87,3,3,0,0,1-.81-1.29,9.22,9.22,0,0,1-.42-2.25q-.12-1.41-.12-3.75v-9.18a38.18,38.18,0,0,0-.42-6.24,13.27,13.27,0,0,0-1.2-3.93,4.81,4.81,0,0,0-1.89-2.07,5,5,0,0,0-2.43-.6,8.58,8.58,0,0,0-2.94.57,7.81,7.81,0,0,0-2.85,1.86,10,10,0,0,0-2.13,3.36,13.33,13.33,0,0,0-.84,5Z" transform="translate(-93.32 -70.7)"/><path class="cls-2" d="M360.15,277.12a7.9,7.9,0,0,0,1.8-.21,4.88,4.88,0,0,0,1.71-.78,5.91,5.91,0,0,0,1.5-1.62,11.14,11.14,0,0,0,1.23-2.79,3.75,3.75,0,0,1,2.28.66,2.36,2.36,0,0,1,.9,2,3.58,3.58,0,0,1-.81,2.28,6.45,6.45,0,0,1-2.16,1.71,12.16,12.16,0,0,1-3.12,1,18.47,18.47,0,0,1-3.69.36,15,15,0,0,1-5.82-1.05,11.38,11.38,0,0,1-4.2-2.94,12.64,12.64,0,0,1-2.55-4.59,19.28,19.28,0,0,1-.87-5.94q0-6.72,3.54-10.56T360,250.9q.78,0,1.56.06a6.35,6.35,0,0,1,1.44.27,2.81,2.81,0,0,1,1.08.6,1.29,1.29,0,0,1,.42,1,5,5,0,0,1,1.83.36,5.72,5.72,0,0,1,1.74,1.08,5.45,5.45,0,0,1,1.32,1.83,6.36,6.36,0,0,1,.51,2.67,5.93,5.93,0,0,1-1.08,3.66,8.06,8.06,0,0,1-2.73,2.31,11.93,11.93,0,0,1-3.6,1.2,22.15,22.15,0,0,1-3.69.33,21.37,21.37,0,0,1-3.69-.3,18.72,18.72,0,0,1-2.91-.72v.24a24.53,24.53,0,0,0,.42,4.68,11.16,11.16,0,0,0,1.35,3.69,6.74,6.74,0,0,0,2.46,2.4A7.48,7.48,0,0,0,360.15,277.12Zm-.66-23.4a5.83,5.83,0,0,0-5,2.34,13.32,13.32,0,0,0-2.22,6.48,6.56,6.56,0,0,0,2.79.87,28.8,28.8,0,0,0,3.39.21q3.24,0,4.53-1a4.27,4.27,0,0,0,1.29-3.54q0-3-1.38-4.17A5.11,5.11,0,0,0,359.49,253.72Z" transform="translate(-93.32 -70.7)"/><path class="cls-2" d="M383.49,273a4.42,4.42,0,0,0,.39,2,3.89,3.89,0,0,0,1,1.26,3.48,3.48,0,0,0,1.32.69,5.44,5.44,0,0,0,1.47.21V279a15.56,15.56,0,0,1-1.59-.09l-1.83-.21-1.83-.21a14.09,14.09,0,0,0-3.18,0l-1.83.21-1.83.21A15.56,15.56,0,0,1,374,279v-1.8a4.83,4.83,0,0,0,2.88-.9,3.72,3.72,0,0,0,1.26-3.24V242q0-2.22-.09-3.69a5.83,5.83,0,0,0-.51-2.28,2.37,2.37,0,0,0-1.2-1.14,5.69,5.69,0,0,0-2.16-.33V233a16.52,16.52,0,0,0,2.61-.18,9.5,9.5,0,0,0,2-.54,9.81,9.81,0,0,0,1.65-.84l1.59-1h1.5Z" transform="translate(-93.32 -70.7)"/><path class="cls-2" d="M400.29,273a4.42,4.42,0,0,0,.39,2,3.89,3.89,0,0,0,1,1.26A3.48,3.48,0,0,0,403,277a5.44,5.44,0,0,0,1.47.21V279a15.56,15.56,0,0,1-1.59-.09l-1.83-.21-1.83-.21a14.09,14.09,0,0,0-3.18,0l-1.83.21-1.83.21a15.56,15.56,0,0,1-1.59.09v-1.8a4.83,4.83,0,0,0,2.88-.9,3.72,3.72,0,0,0,1.26-3.24V242q0-2.22-.09-3.69a5.83,5.83,0,0,0-.51-2.28,2.37,2.37,0,0,0-1.2-1.14,5.69,5.69,0,0,0-2.16-.33V233a16.52,16.52,0,0,0,2.61-.18,9.5,9.5,0,0,0,2-.54,9.81,9.81,0,0,0,1.65-.84l1.59-1h1.5Z" transform="translate(-93.32 -70.7)"/><path class="cls-2" d="M422.31,277.12a7.9,7.9,0,0,0,1.8-.21,4.88,4.88,0,0,0,1.71-.78,5.91,5.91,0,0,0,1.5-1.62,11.14,11.14,0,0,0,1.23-2.79,3.75,3.75,0,0,1,2.28.66,2.36,2.36,0,0,1,.9,2,3.58,3.58,0,0,1-.81,2.28,6.45,6.45,0,0,1-2.16,1.71,12.16,12.16,0,0,1-3.12,1,18.47,18.47,0,0,1-3.69.36,15,15,0,0,1-5.82-1.05,11.38,11.38,0,0,1-4.2-2.94,12.64,12.64,0,0,1-2.55-4.59,19.28,19.28,0,0,1-.87-5.94q0-6.72,3.54-10.56t10.08-3.84q.78,0,1.56.06a6.35,6.35,0,0,1,1.44.27,2.81,2.81,0,0,1,1.08.6,1.29,1.29,0,0,1,.42,1,5,5,0,0,1,1.83.36,5.72,5.72,0,0,1,1.74,1.08,5.45,5.45,0,0,1,1.32,1.83,6.36,6.36,0,0,1,.51,2.67,5.93,5.93,0,0,1-1.08,3.66,8.06,8.06,0,0,1-2.73,2.31,11.93,11.93,0,0,1-3.6,1.2,22.15,22.15,0,0,1-3.69.33,21.37,21.37,0,0,1-3.69-.3,18.72,18.72,0,0,1-2.91-.72v.24a24.53,24.53,0,0,0,.42,4.68,11.16,11.16,0,0,0,1.35,3.69,6.74,6.74,0,0,0,2.46,2.4A7.48,7.48,0,0,0,422.31,277.12Zm-.66-23.4a5.83,5.83,0,0,0-5,2.34,13.32,13.32,0,0,0-2.22,6.48,6.56,6.56,0,0,0,2.79.87,28.8,28.8,0,0,0,3.39.21q3.24,0,4.53-1a4.27,4.27,0,0,0,1.29-3.54q0-3-1.38-4.17A5.11,5.11,0,0,0,421.65,253.72Z" transform="translate(-93.32 -70.7)"/><path class="cls-2" d="M446,273a4.42,4.42,0,0,0,.39,2,3.89,3.89,0,0,0,1,1.26,3.48,3.48,0,0,0,1.32.69,5.44,5.44,0,0,0,1.47.21V279a15.56,15.56,0,0,1-1.59-.09l-1.83-.21-1.83-.21a14.09,14.09,0,0,0-3.18,0l-1.83.21-1.83.21a15.56,15.56,0,0,1-1.59.09v-1.8a4.83,4.83,0,0,0,2.88-.9,3.72,3.72,0,0,0,1.26-3.24V263q0-2.22-.09-3.69a5.83,5.83,0,0,0-.51-2.28,2.37,2.37,0,0,0-1.2-1.14,5.69,5.69,0,0,0-2.16-.33v-1.5a16.52,16.52,0,0,0,2.61-.18,9.5,9.5,0,0,0,2-.54,9.81,9.81,0,0,0,1.65-.84l1.59-1H446v6.24a12.83,12.83,0,0,1,3.45-5.19,6.44,6.44,0,0,1,4.11-1.65,6.57,6.57,0,0,1,2.4.42,1.47,1.47,0,0,1,1.08,1.44,2.39,2.39,0,0,1,1.89.78,3.15,3.15,0,0,1,.69,2.16,3.9,3.9,0,0,1-1.08,2.73,6.44,6.44,0,0,1-3.6,1.65,7,7,0,0,0,.24-1.8,4.42,4.42,0,0,0-1-3.18,2.69,2.69,0,0,0-4.2,0,10.09,10.09,0,0,0-1.95,2.73,18.41,18.41,0,0,0-1.47,4.05,20.88,20.88,0,0,0-.57,5Z" transform="translate(-93.32 -70.7)"/></svg>