<?xml version="1.0" encoding="utf-8"?>
<!-- Generator: Adobe Illustrator 23.0.4, SVG Export Plug-In . SVG Version: 6.00 Build 0)  -->
<svg version="1.1" id="Layer_1" xmlns="http://www.w3.org/2000/svg" xmlns:xlink="http://www.w3.org/1999/xlink" x="0px" y="0px"
	 viewBox="0 0 360 324" style="enable-background:new 0 0 360 324;" xml:space="preserve">
<style type="text/css">
	.st0{fill:#5E489D;}
</style>
<path class="st0" d="M191.3,247.6c0.35-0.74,0.76-1.91,0.37-3.04c-0.67-1.93-2.99-1.78-4.56-3.95c-1.41-1.94-1.12-4.33-1.03-5.05
	c0.37-3.19,2.58-5.14,3.88-6.28c1.16-1.02,4.82-4.26,9.88-3.63c4.74,0.58,7.44,4.15,8.31,5.29c3.05,4.02,4.07,9.76,2.07,14.5
	c-2.35,5.58-7.78,7.86-9.73,8.68c-14.62,6.14-38.64-1.96-45.31-19.1c-0.79-2.02-3.28-9.18-0.89-17.4
	c3.53-12.08,15.27-18.36,20.12-21.01c37.72-20.63,66.63-36.45,78.72-60.37c1.21-2.4,11.95-24.48,3.26-47.05
	c-4.67-12.12-12.97-19.23-16.87-22.49c-28.39-23.73-80.96-26.3-109.84,0.09c-3.64,3.33-19.21,17.55-18.79,37.58
	c0.02,0.86,0.69,21.16,12.75,27.29c0,0,2.4,1.22,20.68,2.76c0,0-7.75,9.59-4.57,18.94c2.42,7.11,9.11,10.04,13,11.73
	c1.88,0.82,18.98,7.91,33.02-3.3c9.12-7.28,12.83-19,10.98-29.13c-0.46-2.54-0.72-10.16-6.81-13.9c-8.2-5.03-11.2-3.12-24.85-10.98
	c-4.12-2.37-7.71-9.79-5.43-14.67c1.46-3.13,5.34-4.98,8.8-4.96c2.79,0.01,6.79,1.22,7.78,3.94c0.89,2.44-1.2,4.6-0.1,5.81
	c0.93,1.02,3.57,0.79,5.03-0.43c3.8-3.19,2.51-15.66-5.03-20.86c-5.95-4.11-13.25-1.93-15.03-1.4
	c-11.34,3.38-14.92,15.22-15.11,15.86c-2.06,7.24-0.4,14.93,3.46,20.26c2.73,3.77,4.72,3.83,19.2,12.55
	c11.11,6.69,12.68,8.3,13.6,10.72c2.1,5.51,0.23,13.65-5.97,17.97c-8.37,5.84-17.91,0-19.52-1.05c-0.72-0.47-6.61-4.42-5.96-8.24
	c0.32-1.88,1.82-3.77,5.21-5.34c9.8-4.52,6.03-12.57,6.03-12.57c-21.05-3.58-35.19-14.3-35.95-25.64
	c-0.47-6.99,4.26-12.63,7.47-16.46c15.55-18.54,41.3-19.2,45.26-19.24c19.1-0.21,49.5,7.69,57.05,29.43
	c6.67,19.21-7.84,39.65-13.83,48.1c-30.15,42.5-75.97,35.86-86.41,70.43c-0.87,2.87-5.43,19.08,2.66,34.62
	c6.6,12.67,18.08,18.11,22.49,20.12c2.83,1.29,25.66,11.29,45.15-0.96c3.5-2.2,14.46-9.08,16.17-21.77
	c1.46-10.76-3.76-25.52-15.16-28.18c-13.09-3.05-28.33,11.31-26.31,21.39C181.76,242.84,188.07,246.19,191.3,247.6z"/>
<path class="st0" d="M379.36,0v324h360V0H379.36z M721.57,302.82H396.45V15.53h325.12V302.82z"/>
<path class="st0" d="M570.66,247.6c0.35-0.74,0.76-1.91,0.36-3.04c-0.67-1.93-2.99-1.78-4.56-3.95c-1.41-1.94-1.12-4.33-1.03-5.05
	c0.37-3.19,2.58-5.14,3.88-6.28c1.16-1.02,4.82-4.26,9.88-3.63c4.74,0.58,7.44,4.15,8.31,5.29c3.05,4.02,4.07,9.76,2.07,14.5
	c-2.35,5.58-7.78,7.86-9.73,8.68c-14.62,6.14-38.64-1.96-45.31-19.1c-0.79-2.02-3.28-9.18-0.89-17.4
	c3.53-12.08,15.27-18.36,20.12-21.01c37.72-20.63,66.63-36.45,78.72-60.37c1.21-2.4,11.95-24.48,3.26-47.05
	c-4.67-12.12-12.97-19.23-16.87-22.49c-28.39-23.73-80.96-26.3-109.84,0.09c-3.64,3.33-19.21,17.55-18.79,37.58
	c0.02,0.86,0.69,21.16,12.75,27.29c0,0,2.4,1.22,20.68,2.76c0,0-7.75,9.59-4.57,18.94c2.42,7.11,9.11,10.04,13,11.73
	c1.88,0.82,18.98,7.91,33.02-3.3c9.12-7.28,12.83-19,10.98-29.13c-0.46-2.54-0.72-10.16-6.81-13.9c-8.2-5.03-11.2-3.12-24.85-10.98
	c-4.12-2.37-7.71-9.79-5.43-14.67c1.46-3.13,5.34-4.98,8.8-4.96c2.79,0.01,6.79,1.22,7.78,3.94c0.89,2.44-1.2,4.6-0.1,5.81
	c0.93,1.02,3.57,0.79,5.03-0.43c3.8-3.19,2.51-15.66-5.03-20.86c-5.95-4.11-13.25-1.93-15.03-1.4
	c-11.34,3.38-14.92,15.22-15.11,15.86c-2.06,7.24-0.4,14.93,3.46,20.26c2.73,3.77,4.72,3.83,19.2,12.55
	c11.11,6.69,12.68,8.3,13.6,10.72c2.1,5.51,0.23,13.65-5.97,17.97c-8.37,5.84-17.91,0-19.52-1.05c-0.72-0.47-6.61-4.42-5.96-8.24
	c0.32-1.88,1.82-3.77,5.21-5.34c9.8-4.52,6.03-12.57,6.03-12.57c-21.05-3.58-35.19-14.3-35.95-25.64
	c-0.47-6.99,4.26-12.63,7.47-16.46c15.55-18.54,41.3-19.2,45.26-19.24c19.1-0.21,49.5,7.69,57.05,29.43
	c6.67,19.21-7.84,39.65-13.83,48.1c-30.15,42.5-75.97,35.86-86.41,70.43c-0.87,2.87-5.43,19.08,2.66,34.62
	c6.6,12.67,18.08,18.11,22.49,20.12c2.83,1.29,25.66,11.29,45.15-0.96c3.5-2.2,14.46-9.08,16.17-21.77
	c1.46-10.76-3.76-25.52-15.16-28.18c-13.09-3.05-28.33,11.31-26.31,21.39C561.12,242.84,567.43,246.19,570.66,247.6z"/>
</svg>
